<svg id="Layer_1" enable-background="new 0 0 511.988 511.988" height="512" viewBox="0 0 511.988 511.988" width="512" xmlns="http://www.w3.org/2000/svg"><g><circle cx="255.994" cy="255.994" fill="#fff" r="240.994"/><path d="m256.45 15v481.977c132.887-.247 240.538-108.044 240.538-240.988s-107.65-240.742-240.538-240.989z" fill="#fff5f5"/><g><path d="m121.115 272.687h-38.407c-8.284 0-15-6.716-15-15s6.716-15 15-15h38.406c8.284 0 15 6.716 15 15s-6.715 15-14.999 15z" fill="#a7fff1"/></g><g><path d="m255.939 138.036c-8.284 0-15-6.716-15-15v-40.422c0-8.284 6.716-15 15-15s15 6.716 15 15v40.422c0 8.284-6.715 15-15 15z" fill="#a7fff1"/></g><g><path d="m321.233 431.944c-5.923 0-11.534-3.532-13.901-9.358l-14.072-34.636c-3.118-7.675.575-16.424 8.25-19.543 7.677-3.119 16.424.575 19.543 8.251l14.072 34.636c3.118 7.675-.575 16.424-8.25 19.543-1.85.751-3.762 1.107-5.642 1.107z" fill="#00ecce"/></g><g><path d="m415.045 338.633c-1.859 0-3.749-.348-5.58-1.083l-34.685-13.914c-7.688-3.084-11.421-11.817-8.337-19.506 3.085-7.689 11.819-11.423 19.507-8.336l34.685 13.914c7.688 3.084 11.421 11.817 8.337 19.506-2.351 5.857-7.98 9.419-13.927 9.419z" fill="#00ecce"/></g><g><path d="m429.59 272.322h-38.803c-8.284 0-15-6.716-15-15s6.716-15 15-15h38.803c8.284 0 15 6.716 15 15s-6.716 15-15 15z" fill="#00ecce"/></g><g><path d="m380.653 221.706c-5.921 0-11.531-3.529-13.899-9.353-3.121-7.673.569-16.425 8.243-19.546l34.616-14.08c7.673-3.121 16.426.569 19.546 8.243 3.121 7.673-.569 16.425-8.243 19.546l-34.616 14.08c-1.851.753-3.765 1.11-5.647 1.11z" fill="#00ecce"/></g><g><path d="m351.286 177.602c-3.838 0-7.675-1.463-10.604-4.39-5.859-5.856-5.862-15.354-.006-21.213l26.424-26.439c5.855-5.86 15.354-5.861 21.213-.006 5.859 5.856 5.862 15.354.006 21.213l-26.423 26.438c-2.929 2.931-6.77 4.397-10.61 4.397z" fill="#00ecce"/></g><g><path d="m308.096 148.455c-1.857 0-3.745-.347-5.574-1.08-7.69-3.082-11.426-11.813-8.345-19.503l13.906-34.704c3.082-7.69 11.814-11.425 19.503-8.344 7.69 3.082 11.426 11.813 8.345 19.503l-13.906 34.704c-2.349 5.86-7.98 9.424-13.929 9.424z" fill="#00ecce"/></g><g><path d="m96.33 337.392c-5.922 0-11.531-3.529-13.9-9.352-3.122-7.674.569-16.425 8.243-19.546l34.616-14.081c7.673-3.124 16.425.569 19.546 8.243s-.569 16.425-8.243 19.546l-34.616 14.081c-1.851.753-3.765 1.109-5.646 1.109z" fill="#a7fff1"/></g><g><path d="m133.88 394.206c-3.837 0-7.675-1.463-10.604-4.39-5.859-5.856-5.862-15.354-.006-21.213l26.423-26.438c5.856-5.86 15.354-5.862 21.213-.006s5.862 15.354.006 21.213l-26.423 26.438c-2.928 2.93-6.769 4.396-10.609 4.396z" fill="#a7fff1"/></g><g><path d="m190.177 431.626c-1.857 0-3.745-.347-5.575-1.08-7.69-3.082-11.426-11.813-8.344-19.503l13.906-34.704c3.082-7.69 11.812-11.424 19.503-8.344 7.69 3.082 11.426 11.813 8.344 19.503l-13.906 34.704c-2.348 5.86-7.979 9.424-13.928 9.424z" fill="#a7fff1"/></g><g><path d="m256.45 444.386c-.001 0 0 0 0 0-8.285 0-15-6.716-15-15l.001-37.055c0-8.284 6.716-15 15-15 8.284 0 15 6.716 15 15l-.002 37.055c0 8.284-6.716 15-14.999 15z" fill="#a7fff1"/></g><g><path d="m205.636 147.723c-5.924 0-11.535-3.532-13.902-9.358l-14.072-34.636c-3.118-7.675.576-16.424 8.251-19.543 7.672-3.117 16.425.575 19.543 8.251l14.072 34.636c3.118 7.675-.576 16.424-8.251 19.543-1.849.751-3.761 1.107-5.641 1.107z" fill="#a7fff1"/></g><g><path d="m131.807 220.051c-1.859 0-3.749-.348-5.58-1.082l-34.684-13.914c-7.689-3.084-11.421-11.817-8.337-19.506 3.084-7.688 11.817-11.422 19.506-8.337l34.684 13.914c7.689 3.084 11.421 11.817 8.337 19.506-2.35 5.857-7.979 9.419-13.926 9.419z" fill="#a7fff1"/></g><path d="m256.451 377.331-.001 67.055c8.283 0 14.999-6.716 14.999-15l.002-37.055c0-8.284-6.716-15-15-15z" fill="#00ecce"/><path d="m256.45 67.614v70.371c8.046-.271 14.489-6.863 14.489-14.974v-40.423c0-8.112-6.443-14.703-14.489-14.974z" fill="#00ecce"/><ellipse cx="255.94" cy="257.687" fill="#00c6cb" rx="134.825" ry="134.651"/><circle cx="191.558" cy="267.986" fill="#00d5dd" r="15"/><circle cx="256.451" cy="326.042" fill="#00d5dd" r="15"/><path d="m256.45 123.036v269.289c74.226-.276 134.314-60.449 134.314-134.644s-60.087-134.369-134.314-134.645z" fill="#00b4bc"/><path d="m511.988 255.994c0-68.378-26.628-132.664-74.979-181.015s-112.636-74.979-181.015-74.979c-68.378 0-132.664 26.628-181.015 74.979-.276.276-.541.558-.815.835-.048.047-.1.086-.148.134-.078.078-.143.163-.219.242-47.595 48.212-73.797 111.991-73.797 179.804 0 68.378 26.628 132.665 74.979 181.015 48.351 48.351 112.637 74.979 181.015 74.979 67.814 0 131.592-26.202 179.804-73.797.079-.076.165-.141.242-.219.048-.048.087-.1.134-.148.277-.274.56-.539.835-.815 48.351-48.35 74.979-112.636 74.979-181.015zm-96.192-159.802c42.685 42.685 66.192 99.437 66.192 159.802 0 55.797-20.098 108.498-56.847 149.865l-319.012-319.011c41.367-36.75 94.068-56.848 149.865-56.848 60.365 0 117.117 23.507 159.802 66.192zm-319.604 319.604c-42.685-42.685-66.192-99.437-66.192-159.802 0-54.877 19.432-106.765 55.034-147.816l318.776 318.776c-41.051 35.602-92.939 55.034-147.816 55.034-60.365 0-117.117-23.507-159.802-66.192z" fill="#ff4a4a"/><path d="m256.451 0v30c60.195.118 116.769 23.61 159.345 66.187 42.685 42.685 66.192 99.437 66.192 159.802 0 55.797-20.098 108.498-56.847 149.865l-168.691-168.69v42.426l147.36 147.36c-40.937 35.503-92.651 54.921-147.36 55.029v30c67.643-.117 131.244-26.303 179.348-73.791.079-.076.165-.141.242-.219.048-.048.087-.1.134-.148.277-.274.56-.539.835-.815 48.351-48.351 74.978-112.637 74.978-181.015s-26.627-132.666-74.977-181.017c-48.244-48.244-112.351-74.855-180.559-74.974z" fill="#e20059"/><g fill="#00c6cb"><circle cx="301.05" cy="206.702" r="15"/><path d="m271.451 326.042c0-8.284-6.716-15-15-15v30c8.284 0 15-6.716 15-15z"/></g></g></svg>